<?xml version="1.0" encoding="utf-8"?>
<!-- Generator: Adobe Illustrator 18.0.0, SVG Export Plug-In . SVG Version: 6.00 Build 0)  -->
<!DOCTYPE svg PUBLIC "-//W3C//DTD SVG 1.1//EN" "http://www.w3.org/Graphics/SVG/1.1/DTD/svg11.dtd">
<svg version="1.1" id="Layer_1" xmlns="http://www.w3.org/2000/svg" xmlns:xlink="http://www.w3.org/1999/xlink" x="0px" y="0px"
	 viewBox="1424 -346 1124 1124" enable-background="new 1424 -346 1124 1124" xml:space="preserve">
<rect x="161.6" y="-346" fill="#FAFAFA" width="1124" height="1124"/>
<g>
	<g>
		<g>
			<path fill="#3F51B5" d="M1123.6,409.5V-184h-800v593.5h232.3v25.8H452.6c-71.1,0-129,57.9-129,129V616h25.8v-51.6
				c0-52.5,39.5-95.9,90.3-102.3V487h25.8v-24.9c50.8,6.4,90.3,49.8,90.3,102.3V616h25.8v-51.6c0-42.2-20.5-79.7-51.9-103.2h387.8
				c-31.5,23.5-51.9,61-51.9,103.2V616h25.8v-51.6c0-52.5,39.5-95.9,90.3-102.3V487h25.8v-24.9c50.8,6.4,90.3,49.8,90.3,102.3V616
				h25.8v-51.6c0-71.1-57.9-129-129-129H891.4v-25.8H1123.6z M865.5,435.4H581.7v-25.8h283.9V435.4z M349.4,383.7v-541.9h748.4
				v541.9H349.4z"/>
			<path fill="#3F51B5" d="M375.2,357.9H1072v-490.3H375.2V357.9z M401,306.3h25.8v-25.8H401v-25.8h25.8v-25.8H401v-25.8h25.8v-25.8
				H401v-25.8h25.8v-25.8H401V99.9h25.8V74.1H401V48.3h25.8V22.5H401V-3.4h25.8v-25.8H401V-55h25.8v-25.8H401v-25.8h645.2v25.8
				h-25.8V-55h25.8v25.8h-25.8v25.8h25.8v25.8h-25.8v25.8h25.8v25.8h-25.8v25.8h25.8v25.8h-25.8v25.8h25.8v25.8h-25.8v25.8h25.8
				v25.8h-25.8v25.8h25.8v25.8h-25.8v25.8h25.8v25.8H401V306.3z"/>
			<path fill="#3F51B5" d="M452.6,512.8c-28.5,0-51.6,23.1-51.6,51.6s23.1,51.6,51.6,51.6s51.6-23.1,51.6-51.6
				S481.1,512.8,452.6,512.8z M452.6,590.2c-14.2,0-25.8-11.6-25.8-25.8c0-14.2,11.6-25.8,25.8-25.8c14.2,0,25.8,11.6,25.8,25.8
				C478.5,578.6,466.9,590.2,452.6,590.2z"/>
			<path fill="#3F51B5" d="M994.6,512.8c-28.5,0-51.6,23.1-51.6,51.6s23.1,51.6,51.6,51.6s51.6-23.1,51.6-51.6
				S1023,512.8,994.6,512.8z M994.6,590.2c-14.2,0-25.8-11.6-25.8-25.8c0-14.2,11.6-25.8,25.8-25.8c14.2,0,25.8,11.6,25.8,25.8
				C1020.4,578.6,1008.8,590.2,994.6,590.2z"/>
			
				<rect x="710.7" y="-32.3" transform="matrix(-0.9702 -0.2423 0.2423 -0.9702 1407.6992 321.2461)" fill="#3F51B5" width="25.8" height="212.8"/>
			<polygon fill="#3F51B5" points="803.6,-21.4 875.2,74.1 803.6,169.5 824.3,185 907.5,74.1 824.3,-36.9 			"/>
			<polygon fill="#3F51B5" points="572,74.1 643.6,-21.4 623,-36.9 539.7,74.1 623,185 643.6,169.5 			"/>
			<path fill="#3F51B5" d="M723.6,203.1c-21.3,0-38.7,17.4-38.7,38.7s17.4,38.7,38.7,38.7s38.7-17.4,38.7-38.7
				S745,203.1,723.6,203.1z M723.6,254.7c-7.1,0-12.9-5.8-12.9-12.9c0-7.1,5.8-12.9,12.9-12.9c7.1,0,12.9,5.8,12.9,12.9
				C736.5,248.9,730.7,254.7,723.6,254.7z"/>
			<rect x="788.1" y="228.9" fill="#3F51B5" width="25.8" height="25.8"/>
			<rect x="839.7" y="228.9" fill="#3F51B5" width="25.8" height="25.8"/>
			<rect x="633.3" y="228.9" fill="#3F51B5" width="25.8" height="25.8"/>
			<rect x="581.7" y="228.9" fill="#3F51B5" width="25.8" height="25.8"/>
		</g>
	</g>
</g>
<g>
	<g>
		<g>
			<path fill="#3F51B5" d="M2548,487.9V-346H1424v833.9h326.3v36.3h-145c-100,0-181.3,81.3-181.3,181.3V778h36.3v-72.5
				c0-73.8,55.5-134.8,126.9-143.8v35h36.3v-35c71.4,9,126.9,70,126.9,143.8V778h36.3v-72.5c0-59.3-28.8-111.9-73-145h544.8
				c-44.2,33.1-73,85.7-73,145V778h36.3v-72.5c0-73.8,55.5-134.8,126.9-143.8v35h36.3v-35c71.4,9,126.9,70,126.9,143.8V778h36.3
				v-72.5c0-100-81.3-181.3-181.3-181.3h-145v-36.3H2548z M2185.4,524.2h-398.8v-36.3h398.8V524.2z M1460.3,451.7v-761.4h1051.5
				v761.4H1460.3z"/>
			<path fill="#3F51B5" d="M1496.5,415.4h979v-688.9h-979V415.4z M1532.8,342.9h36.3v-36.3h-36.3v-36.3h36.3v-36.3h-36.3v-36.3h36.3
				v-36.3h-36.3v-36.3h36.3V89.1h-36.3V52.8h36.3V16.6h-36.3v-36.3h36.3v-36.3h-36.3v-36.3h36.3v-36.3h-36.3v-36.3h36.3V-201h-36.3
				v-36.3h906.5v36.3H2403v36.3h36.3v36.3H2403v36.3h36.3v36.3H2403v36.3h36.3v36.3H2403v36.3h36.3v36.3H2403v36.3h36.3v36.3H2403
				v36.3h36.3v36.3H2403v36.3h36.3v36.3H2403v36.3h36.3v36.3h-906.5V342.9z"/>
			<path fill="#3F51B5" d="M1605.3,633c-40,0-72.5,32.5-72.5,72.5s32.5,72.5,72.5,72.5c40,0,72.5-32.5,72.5-72.5
				S1645.3,633,1605.3,633z M1605.3,741.7c-20,0-36.3-16.3-36.3-36.3s16.3-36.3,36.3-36.3c20,0,36.3,16.3,36.3,36.3
				S1625.3,741.7,1605.3,741.7z"/>
			<path fill="#3F51B5" d="M2366.7,633c-40,0-72.5,32.5-72.5,72.5s32.5,72.5,72.5,72.5s72.5-32.5,72.5-72.5S2406.7,633,2366.7,633z
				 M2366.7,741.7c-20,0-36.3-16.3-36.3-36.3s16.3-36.3,36.3-36.3c20,0,36.3,16.3,36.3,36.3S2386.7,741.7,2366.7,741.7z"/>
			
				<rect x="1967.9" y="-132.9" transform="matrix(-0.9702 -0.2423 0.2423 -0.9702 3908.7771 513.865)" fill="#3F51B5" width="36.2" height="299"/>
			<polygon fill="#3F51B5" points="2098.4,-117.6 2199,16.6 2098.4,150.7 2127.4,172.5 2244.3,16.6 2127.4,-139.3 			"/>
			<polygon fill="#3F51B5" points="1773,16.6 1873.6,-117.6 1844.6,-139.3 1727.7,16.6 1844.6,172.5 1873.6,150.7 			"/>
			<path fill="#3F51B5" d="M1986,197.9c-30,0-54.4,24.4-54.4,54.4s24.4,54.4,54.4,54.4s54.4-24.4,54.4-54.4S2016,197.9,1986,197.9z
				 M1986,270.4c-10,0-18.1-8.1-18.1-18.1c0-10,8.1-18.1,18.1-18.1s18.1,8.1,18.1,18.1C2004.1,262.3,1996,270.4,1986,270.4z"/>
			<rect x="2076.6" y="234.1" fill="#3F51B5" width="36.3" height="36.3"/>
			<rect x="2149.2" y="234.1" fill="#3F51B5" width="36.3" height="36.3"/>
			<rect x="1859.1" y="234.1" fill="#3F51B5" width="36.3" height="36.3"/>
			<rect x="1786.6" y="234.1" fill="#3F51B5" width="36.3" height="36.3"/>
		</g>
	</g>
</g>
</svg>
