<?xml version="1.0" standalone="no"?>
<!DOCTYPE svg PUBLIC "-//W3C//DTD SVG 20010904//EN"
 "http://www.w3.org/TR/2001/REC-SVG-20010904/DTD/svg10.dtd">
<svg version="1.0" xmlns="http://www.w3.org/2000/svg"
 width="256.000000pt" height="256.000000pt" viewBox="0 0 256.000000 256.000000"
 preserveAspectRatio="xMidYMid meet">
<metadata>
Created by potrace 1.11, written by Peter Selinger 2001-2013
</metadata>
<g transform="translate(0.000000,256.000000) scale(0.100000,-0.100000)"
fill="#000000" stroke="none">
<path d="M1197 2526 c-100 -37 -162 -128 -162 -236 1 -99 44 -170 134 -221
l41 -23 0 -127 0 -127 -408 1 c-451 0 -447 0 -493 -65 -22 -31 -24 -41 -24
-215 l0 -183 -93 -52 c-51 -29 -105 -59 -120 -67 -15 -8 -29 -18 -32 -22 -3
-4 -5 -126 -5 -271 l0 -263 110 -62 c61 -34 117 -66 125 -71 11 -7 14 -46 15
-210 1 -222 3 -227 69 -276 27 -21 36 -21 909 -21 526 -1 894 3 912 8 43 14
84 56 94 97 5 19 8 115 7 213 l-2 179 71 41 c38 22 90 52 115 65 25 13 49 28
55 33 6 6 10 112 10 274 l0 264 -118 67 c-64 36 -120 71 -124 78 -4 6 -8 90
-8 187 -1 166 -2 177 -24 207 -46 65 -42 64 -493 65 l-408 0 0 129 0 129 34
14 c42 18 98 74 121 121 55 117 7 260 -110 325 -50 27 -145 35 -198 15z"/>
</g>
</svg>
