<?xml version="1.0" standalone="no"?>
<!DOCTYPE svg PUBLIC "-//W3C//DTD SVG 20010904//EN"
 "http://www.w3.org/TR/2001/REC-SVG-20010904/DTD/svg10.dtd">
<svg version="1.0" xmlns="http://www.w3.org/2000/svg"
 width="829.000000pt" height="829.000000pt" viewBox="0 0 829.000000 829.000000"
 preserveAspectRatio="xMidYMid meet">
<metadata>
Created by potrace 1.11, written by Peter Selinger 2001-2013
</metadata>
<g transform="translate(0.000000,829.000000) scale(0.100000,-0.100000)"
fill="#000000" stroke="none">
<path d="M3970 8283 c-14 -2 -52 -8 -85 -14 -33 -6 -71 -13 -85 -15 -141 -25
-407 -149 -551 -260 -139 -105 -279 -256 -279 -299 0 -60 51 -104 104 -91 13
3 42 25 63 48 222 244 467 387 761 444 93 18 314 24 415 12 206 -27 439 -124
610 -255 151 -116 144 -112 179 -102 44 12 59 30 65 75 4 35 0 43 -32 76 -150
152 -464 316 -680 354 -16 3 -58 11 -92 18 -56 11 -331 18 -393 9z"/>
<path d="M4110 7993 c-45 -3 -163 -18 -230 -29 -100 -16 -307 -106 -408 -177
-158 -112 -272 -234 -272 -293 0 -73 96 -115 142 -61 141 166 318 286 502 342
111 33 133 36 271 40 258 7 478 -72 685 -245 59 -49 101 -57 136 -25 32 30 41
78 20 109 -24 38 -145 132 -233 182 -153 87 -307 135 -488 150 -38 3 -72 7
-75 7 -3 1 -25 1 -50 0z"/>
<path d="M4127 7694 c-1 -1 -33 -4 -72 -7 -227 -17 -465 -144 -599 -320 -50
-66 -19 -147 57 -147 30 0 46 11 119 83 46 45 110 97 142 116 174 103 391 126
593 63 55 -17 171 -83 215 -121 67 -58 85 -68 117 -63 53 8 89 68 70 119 -10
26 -124 119 -204 164 -102 59 -218 94 -355 107 -44 5 -82 7 -83 6z"/>
<path d="M4025 7294 c-186 -43 -337 -199 -375 -389 -35 -169 37 -368 173 -479
52 -42 159 -93 216 -102 28 -4 41 -12 42 -23 4 -76 3 -685 -1 -691 -3 -4 -48
-10 -100 -13 -120 -8 -173 -14 -280 -32 -199 -35 -483 -134 -680 -239 -284
-150 -468 -300 -745 -609 -30 -33 -167 -231 -202 -292 -156 -270 -280 -614
-307 -860 -4 -27 -8 -61 -11 -74 -14 -75 -18 -357 -18 -1471 l-1 -1235 -40
-30 c-45 -34 -101 -119 -117 -179 -6 -23 -9 -102 -7 -185 3 -138 5 -149 32
-204 33 -64 92 -124 158 -159 l43 -23 2317 -3 2317 -2 58 21 c69 27 153 106
186 176 20 44 22 64 22 218 0 161 -1 172 -25 220 -14 27 -48 73 -77 101 l-52
53 -4 1323 c-1 728 -6 1334 -9 1348 -3 14 -9 48 -13 75 -3 28 -13 82 -20 120
-8 39 -16 81 -19 95 -38 198 -166 504 -298 715 -138 221 -340 450 -531 605
-272 218 -612 387 -942 465 -157 37 -246 52 -384 62 -47 3 -88 7 -90 9 -3 3
-5 612 -2 694 1 22 9 28 61 44 128 40 242 147 297 281 29 69 36 108 35 191 -1
132 -47 245 -137 337 -125 128 -298 180 -470 141z"/>
</g>
</svg>
